# xmcd
#
# Track frame offsets: 
#        150
#        14540
#        24860
#        69198
#        84705
#        98495
#        110340
#        127070
#        142940
#        158045
#        178315
#        190253
#        209148
#        231288
#        250658
#        264458
#        276823
#        296020
#        302495
#
# Disc length: 4090 seconds
#
# Revision: 1
# Processed by: cddbd v1.4PL0 Copyright (c) Steve Scherf et al.
# Submitted via: ExactAudioCopy v0.90b3
#
DISCID=0b0ff813
DTITLE=Larry Gatlin and The Gatlin Brothers - Live At 8 P.M.
DYEAR=1900
DGENRE=Country
TTITLE0=Alive And Well
TTITLE1=Nighttime Magic
TTITLE2=Grammy Medley
TTITLE3=Love Is Just A Game
TTITLE4=Broken Lady
TTITLE5=Healin' Stream
TTITLE6=The Heart
TTITLE7=Talkin' To The Moon
TTITLE8=I Might Be What You're Lookin' For
TTITLE9=Boogie And Beethoven
TTITLE10=Love Of A Lifetime
TTITLE11=I've Done Enough Dyin' Today
TTITLE12=The Eagle
TTITLE13=8:00 P.M.
TTITLE14=Houston (Means I'm One Day Closer To You)
TTITLE15=All The Gold In California
TTITLE16=She Used To Be Somebody's Baby
TTITLE17=Alleluia
TTITLE18=She Used To Be Somebody's Baby (Reprise)
EXTD=
EXTT0=
EXTT1=
EXTT2=
EXTT3=
EXTT4=
EXTT5=
EXTT6=
EXTT7=
EXTT8=
EXTT9=
EXTT10=
EXTT11=
EXTT12=
EXTT13=
EXTT14=
EXTT15=
EXTT16=
EXTT17=
EXTT18=
PLAYORDER=
